<svg width="16" height="16" viewBox="0 0 16 16" fill="none" xmlns="http://www.w3.org/2000/svg">
<g clip-path="url(#clip0_194_876)">
<path d="M9.69064 14.4573C9.71597 14.5205 9.76 14.5743 9.81682 14.6117C9.87364 14.6491 9.94054 14.6682 10.0085 14.6664C10.0765 14.6647 10.1424 14.6422 10.1972 14.6019C10.252 14.5617 10.2932 14.5057 10.3153 14.4413L14.6486 1.77466C14.67 1.71559 14.674 1.65167 14.6604 1.59037C14.6467 1.52907 14.6159 1.47293 14.5715 1.42852C14.527 1.3841 14.4709 1.35326 14.4096 1.33959C14.3483 1.32592 14.2844 1.32999 14.2253 1.35133L1.55864 5.68466C1.4943 5.70673 1.43826 5.74794 1.39802 5.80278C1.35778 5.85761 1.33529 5.92344 1.33354 5.99144C1.3318 6.05943 1.3509 6.12632 1.38828 6.18315C1.42565 6.23997 1.47952 6.284 1.54264 6.30933L6.82931 8.42933C6.99643 8.49624 7.14827 8.5963 7.27568 8.72348C7.40309 8.85066 7.50343 9.00233 7.57064 9.16933L9.69064 14.4573Z" stroke="white" stroke-width="1.33333" stroke-linecap="round" stroke-linejoin="round"/>
<path d="M14.5693 1.43127L7.276 8.72394" stroke="white" stroke-width="1.33333" stroke-linecap="round" stroke-linejoin="round"/>
</g>
<defs>
<clipPath id="clip0_194_876">
<rect width="16" height="16" fill="white"/>
</clipPath>
</defs>
</svg>
