<svg width="78" height="23" viewBox="0 0 78 23" fill="none" xmlns="http://www.w3.org/2000/svg">
<path d="M23.5564 0.455811H20.0458V22.3706H23.5564V0.455811Z" fill="black"/>
<path d="M35.8378 15.3779C35.8378 18.7371 33.0133 18.9999 32.1785 18.9999C30.0859 18.9999 29.6971 17.0347 29.6971 15.8578V7.47119H26.1865V15.8464C26.1865 17.9259 26.8383 19.6398 27.9818 20.7823C28.9881 21.7878 30.509 22.3477 32.1442 22.3477C33.3106 22.3477 34.9573 21.982 35.8378 21.1822V22.3819H39.3484V7.48263H35.8378V15.3893V15.3779Z" fill="black"/>
<path d="M46.3696 2.2041H42.859V7.4714H40.2289V10.9791H42.859V22.3707H46.3696V10.9791H48.9997V7.4714H46.3696V2.2041Z" fill="black"/>
<path d="M60.0462 17.9145C59.28 18.6 58.2737 18.9771 57.1645 18.9771C54.7288 18.9771 52.9335 17.1832 52.9335 14.7267C52.9335 12.2701 54.6716 10.5562 57.1645 10.5562C58.2508 10.5562 59.28 10.9218 60.069 11.6074L60.6065 12.0644L62.9736 9.69929L62.379 9.16224C60.9839 7.90539 59.1428 7.19702 57.1759 7.19702C52.7848 7.19702 49.6058 10.362 49.6058 14.7038C49.6058 19.0456 52.8649 22.302 57.1759 22.302C59.1771 22.302 61.041 21.5936 62.4247 20.3253L62.9964 19.7883L60.5951 17.4232L60.0576 17.903L60.0462 17.9145Z" fill="black"/>
<path d="M75.4951 8.76243C74.4888 7.75695 73.2996 7.19709 71.6643 7.19709C70.4979 7.19709 69.1829 7.56274 68.3024 8.36255V0.455811H64.7917V22.3706H68.3024V14.1668C68.3024 10.8076 70.6923 10.5449 71.5271 10.5449C73.6198 10.5449 73.5625 12.5101 73.5625 13.687V22.3706H77.0732V13.6984C77.0732 11.6189 76.6386 9.90501 75.4951 8.76243Z" fill="black"/>
<path d="M57.0501 12.2358C58.4567 12.2358 59.5888 13.367 59.5888 14.7724C59.5888 16.1778 58.4567 17.3089 57.0501 17.3089C55.6436 17.3089 54.5115 16.1778 54.5115 14.7724C54.5115 13.367 55.6436 12.2358 57.0501 12.2358Z" fill="#FF3D2E"/>
<path d="M15.1401 16.8635C13.8022 18.2346 11.9954 18.9773 10.0857 18.9773C6.1749 18.9773 3.33894 15.9037 3.33894 11.699C3.33894 7.49428 6.18634 4.39785 10.0857 4.39785C11.9726 4.39785 13.7678 5.14055 15.1172 6.48881L15.6547 7.02579L17.9989 4.6835L17.4843 4.14652C15.5403 2.14699 12.9102 1.06152 10.0857 1.06152C4.3224 1.06152 -0.00012207 5.63187 -0.00012207 11.7104C-0.00012207 17.789 4.34527 22.325 10.0857 22.325C12.9331 22.325 15.5632 21.2168 17.5072 19.2172L18.0218 18.6802L15.7004 16.3036L15.1515 16.8521L15.1401 16.8635Z" fill="black"/>
</svg>
