<svg width="114" height="29" viewBox="0 0 114 29" fill="none" xmlns="http://www.w3.org/2000/svg">
<path d="M112.108 22.9162C112.411 22.8441 112.57 22.6855 112.57 22.3828C112.57 21.9935 112.339 21.8494 111.877 21.8494H111.112V23.7668H111.415V22.9306H111.718L112.252 23.7668H112.555L112.093 22.9306L112.108 22.9162ZM111.805 22.6855H111.502V22.08H111.891C112.122 22.08 112.353 22.08 112.353 22.3828C112.353 22.6855 112.122 22.6855 111.819 22.6855H111.805Z" fill="black"/>
<path d="M111.877 21.0126C110.882 21.0126 110.045 21.7767 110.045 22.8435C110.045 23.8382 110.809 24.6744 111.877 24.6744C112.873 24.6744 113.71 23.9103 113.71 22.8435C113.637 21.7767 112.873 21.0126 111.877 21.0126ZM111.877 24.3716C111.04 24.3716 110.348 23.6797 110.348 22.757C110.348 21.8343 111.04 21.1424 111.877 21.1424C112.714 21.1424 113.407 21.8343 113.407 22.757C113.407 23.6797 112.714 24.3716 111.877 24.3716ZM0 4.69307H4.28521V20.2341H12.1053V24.1409H0V4.69307ZM14.0243 10.9787H18.0931V24.1554H14.0243V10.9787ZM16.0876 4.39038C17.3861 4.39038 18.4682 5.45715 18.4682 6.76905C18.4682 8.08095 17.4005 9.14781 16.0876 9.14781C14.7746 9.14781 13.7069 8.08095 13.7069 6.76905C13.7069 5.45715 14.7024 4.39038 16.0876 4.39038ZM35.1762 4.69307H39.3172V16.3272L43.9198 10.9643H48.9841L43.6168 17.0193L48.8254 24.1409H43.6889L39.3172 17.6392V24.1409H35.1762V4.69307ZM20.3872 10.9787H24.2973V12.7375H24.3694C24.9033 11.6707 26.2884 10.5895 28.2795 10.5895C32.4204 10.5895 33.1851 13.343 33.1851 16.875V24.0689H29.1163V17.6392C29.1163 16.111 29.1163 14.1215 26.9665 14.1215C24.8167 14.1215 24.5137 15.8082 24.5137 17.4949V23.9968H20.4449V10.9787H20.3728H20.3872Z" fill="black"/>
<path d="M57.5546 16.0246C57.5546 14.6406 56.4869 13.5017 55.0297 13.5017C53.2694 13.5017 52.2739 14.7271 52.1152 16.0246H57.5546ZM61.003 21.8488C59.7045 23.5355 57.5547 24.4582 55.4048 24.4582C51.3361 24.4582 48.0464 21.7046 48.0464 17.495C48.0464 13.2854 51.3361 10.5319 55.4048 10.5319C59.2428 10.5319 61.609 13.2854 61.609 17.495V18.7925H52.1007C52.4037 20.3207 53.6301 21.3154 55.1595 21.3154C56.4581 21.3154 57.3815 20.6234 58.0741 19.7008L60.9886 21.8488H61.003ZM70.1217 14.1072C68.0584 14.1072 66.832 15.4911 66.832 17.4806C66.832 19.4701 68.0584 20.8541 70.1217 20.8541C72.1849 20.8541 73.4114 19.4701 73.4114 17.4806C73.4114 15.4911 72.1849 14.1072 70.1217 14.1072ZM77.1627 24.141H73.4114V22.3822H73.3392C72.7332 23.3049 71.1173 24.4438 69.2704 24.4438C65.3604 24.4438 62.7633 21.6037 62.7633 17.6248C62.7633 13.9486 65.0574 10.5751 68.8232 10.5751C70.5113 10.5751 72.1128 11.0365 73.0362 12.334H73.1084V4.67871H77.1772V24.1266L77.1627 24.141Z" fill="black"/>
<path d="M106.827 0.64209H83.2945C82.1402 0.64209 81.2313 1.56475 81.2313 2.63157V26.217C81.2313 27.2838 82.1547 28.2064 83.2945 28.2064H106.827C107.981 28.2064 108.89 27.2838 108.89 26.217V2.63157C108.89 1.56475 107.967 0.64209 106.827 0.64209Z" fill="#006192"/>
<path d="M85.3724 10.9787H89.4412V24.1553H85.3724V10.9787ZM87.4357 4.4624C88.7342 4.4624 89.8164 5.52917 89.8164 6.84107C89.8164 8.15297 88.7486 9.21983 87.4357 9.21983C86.1227 9.21983 85.055 8.15297 85.055 6.84107C85.055 5.45709 86.1227 4.4624 87.4357 4.4624ZM92.0383 10.9787H95.9484V12.7375H96.0205C96.5544 11.6706 97.9395 10.5894 99.9306 10.5894C104.072 10.5894 104.836 13.3429 104.836 16.875V24.0688H100.767V17.6391C100.767 16.111 100.767 14.1215 98.6176 14.1215C96.4678 14.1215 96.1648 15.8082 96.1648 17.4949V23.9967H92.096V10.9787H92.0239H92.0383Z" fill="white"/>
</svg>
