<svg width="532" height="147" viewBox="0 0 532 147" fill="none" xmlns="http://www.w3.org/2000/svg">
<path d="M42.5969 146.563C42.5969 146.924 71.4763 130.799 85.194 122.015V109.906V97.592V73.124V24.1865L42.5969 48.3729L42.5969 146.563Z" fill="#433185"/>
<path d="M42.5969 48.373L85.194 24.1865V72.1984L42.5969 48.373Z" fill="#E50880"/>
<path d="M127.791 48.373L170.388 72.1984L127.791 96.0239L85.1941 72.1984L127.791 48.373Z" fill="#433185"/>
<path d="M42.5971 0L85.1941 24.1865L42.5971 48.3729L0 24.1865L42.5971 0Z" fill="#433185"/>
<path d="M190 31.2838V37.2464H199.938H209.875V55.4655V73.6846H216.501H223.126V55.4655V37.2464H232.732H242.339V31.2838V25.3212H216.169H190V31.2838Z" fill="black"/>
<path d="M249.954 26.2483C246.443 27.7721 246.311 28.7659 246.311 52.1526V73.6842H252.936H259.561V56.5252C259.561 39.4986 259.561 39.2998 261.018 38.3061C262.277 37.3786 265.126 37.2461 278.906 37.2461H295.336V31.2834V25.3208H273.672C257.176 25.3871 251.478 25.5858 249.954 26.2483Z" fill="black"/>
<path d="M300.641 49.5025V73.6842H307.266H313.891V49.5025V25.3208H307.266H300.641V49.5025Z" fill="black"/>
<path d="M319.855 49.5025V73.6842H342.712H365.569V67.7216V61.759H349.668H333.768V43.5399V25.3208H326.812H319.855V49.5025Z" fill="black"/>
<path d="M374.437 25.9833C373.642 26.2483 372.383 27.3746 371.588 28.3684C370.263 30.0909 370.197 30.6872 370.197 49.635V69.1792L372.449 71.4317L374.702 73.6842H395.372H416.043L418.295 71.4317L420.548 69.1792V49.7013C420.548 28.4346 420.548 28.3684 416.573 26.3146C414.983 25.5196 411.206 25.3208 395.24 25.3871C384.573 25.3871 375.166 25.6521 374.437 25.9833ZM406.237 38.7036C407.099 39.8961 407.297 42.1486 407.297 49.7013C407.297 55.0014 406.966 59.7715 406.635 60.5002C405.972 61.6928 405.111 61.759 395.439 61.759H384.971L384.242 60.1027C383.778 59.0427 383.447 54.6701 383.447 48.84C383.447 41.0886 383.646 39.1673 384.507 38.3061C385.368 37.4448 387.29 37.2461 395.372 37.2461C404.78 37.2461 405.31 37.3123 406.237 38.7036Z" fill="black"/>
<path d="M425.188 49.5025V73.6842H432.475H439.763V64.0778V54.4714H446.255C451.688 54.4714 453.212 54.7364 455.663 55.9289C460.301 58.3802 461.228 60.169 461.493 67.4566L461.758 73.6842H468.715H475.737L475.406 66.1979C475.141 59.904 474.876 58.1815 473.286 54.8026C472.292 52.6163 470.901 50.2313 470.172 49.4363L468.847 48.045L470.768 45.13C473.551 41.0224 475.008 36.3848 475.406 30.4222L475.737 25.3208H468.648H461.626V28.9646C461.626 35.0598 459.241 38.8361 454.404 40.4924C453.146 40.8899 449.369 41.2211 445.99 41.2211H439.763V33.271V25.3208H432.475H425.188V49.5025Z" fill="black"/>
<path d="M480.177 49.5025V73.6842H487.134H494.09V56.5252C494.09 41.7511 494.223 39.1673 495.15 38.3061C496.011 37.4448 497.933 37.2461 506.015 37.2461C515.423 37.2461 515.953 37.3123 516.88 38.7036C517.808 39.9624 517.94 42.8774 517.94 56.9227V73.6842H524.632H531.257L531.058 52.5501C530.793 23.1345 533.112 25.3208 501.908 25.3208H480.177V49.5025Z" fill="black"/>
<path d="M271.413 102.639C266.445 103.632 263.397 106.945 263.331 111.582C263.264 115.359 264.59 117.678 267.968 119.665C272.871 122.514 279.496 121.52 283.007 117.346C285.326 114.564 285.525 109.131 283.405 106.415C280.887 103.235 276.183 101.777 271.413 102.639ZM277.84 106.282C282.08 108.071 282.941 113.305 279.43 116.22C274.925 120.063 266.908 117.479 266.908 112.179C266.908 109.131 267.902 107.409 270.42 106.349C273.136 105.156 275.057 105.156 277.84 106.282Z" fill="black"/>
<path d="M338.456 102.839C333.156 104.363 330.771 107.808 331.367 113.042C331.897 118.077 336.071 121.257 342.1 121.257C347.201 121.257 352.899 117.414 350.911 115.427C349.785 114.3 349.123 114.433 346.936 116.288C344.618 118.209 340.775 118.474 337.794 116.95C334.017 114.963 333.421 111.186 336.402 107.874C338.125 105.953 338.787 105.688 341.636 105.688C344.021 105.688 345.545 106.085 346.936 107.145C348.659 108.404 349.056 108.47 350.116 107.741C351.176 106.946 351.176 106.681 350.381 105.688C348.195 103.104 342.498 101.713 338.456 102.839Z" fill="black"/>
<path d="M209.273 111.65V120.594H210.929H212.585V111.65V102.706H210.929H209.273V111.65Z" fill="black"/>
<path d="M219.877 111.65V120.594H221.534C223.124 120.594 223.124 120.462 223.323 114.897L223.521 109.199L228.49 114.83C235.513 122.847 235.778 122.714 235.778 111.65V102.706H234.121C232.531 102.706 232.531 102.839 232.333 108.338L232.134 113.969L227.165 108.338C220.142 100.454 219.877 100.586 219.877 111.65Z" fill="black"/>
<path d="M243.054 111.65V120.594H244.71C246.3 120.594 246.366 120.395 246.366 116.619V112.644H250.673C254.515 112.644 254.979 112.512 254.979 111.319C254.979 110.126 254.515 109.994 250.673 109.994H246.366V108.006V106.019H252.991H259.617V104.363V102.706H251.335H243.054V111.65Z" fill="black"/>
<path d="M287.453 104.363C287.453 105.953 287.652 106.019 291.097 106.019H294.741V113.307V120.594H296.397H298.053V113.307V106.019H301.697C305.142 106.019 305.341 105.953 305.341 104.363V102.706H296.397H287.453V104.363Z" fill="black"/>
<path d="M309.969 111.65V120.594H318.581C326.73 120.594 327.194 120.528 327.194 119.269C327.194 118.01 326.73 117.944 320.238 117.944H313.281V115.294V112.644H317.588C321.43 112.644 321.894 112.512 321.894 111.319C321.894 110.126 321.43 109.994 317.588 109.994H313.281V108.006V106.019H319.906H326.532V104.363V102.706H318.25H309.969V111.65Z" fill="black"/>
<path d="M357.669 111.65V120.594H359.326C360.916 120.594 360.982 120.395 360.982 116.619V112.644H366.613H372.245V116.619C372.245 120.395 372.311 120.594 373.901 120.594H375.557V111.65V102.706H373.901C372.377 102.706 372.245 102.905 372.245 106.019V109.331H366.613H360.982V106.019C360.982 102.905 360.849 102.706 359.326 102.706H357.669V111.65Z" fill="black"/>
<path d="M396.772 111.65V120.594H398.428C400.018 120.594 400.084 120.395 400.084 116.95V113.307H405.716C413.997 113.307 416.846 111.319 415.587 106.35C414.858 103.568 412.275 102.706 404.059 102.706H396.772V111.65ZM412.01 107.013C412.672 107.808 412.672 108.205 412.01 109C411.413 109.729 409.757 109.994 405.649 109.994H400.084V108.006V106.019H405.649C409.757 106.019 411.413 106.284 412.01 107.013Z" fill="black"/>
<path d="M418.628 103.303C418.628 104.76 427.44 120.594 428.301 120.594C429.03 120.594 437.841 104.429 437.841 103.038C437.841 102.839 437.112 102.706 436.185 102.706C434.793 102.706 434.131 103.568 431.348 109L428.235 115.294L425.055 109C422.404 103.568 421.742 102.706 420.284 102.706C419.357 102.706 418.628 102.971 418.628 103.303Z" fill="black"/>
<path d="M439.164 104.363C439.164 105.953 439.363 106.019 442.808 106.019H446.451V113.307V120.594H448.108H449.764V113.307V106.019H453.739C457.515 106.019 457.714 105.953 457.714 104.363V102.706H448.439H439.164V104.363Z" fill="black"/>
<path d="M476.92 111.65V120.594H485.202C493.019 120.594 493.483 120.528 493.483 119.269C493.483 118.01 493.019 117.944 487.189 117.944H480.895V110.325V102.706H478.908H476.92V111.65Z" fill="black"/>
<path d="M491.5 104.363C491.5 105.953 491.699 106.019 495.144 106.019H498.787V113.307V120.594H500.444H502.1V113.307V106.019H505.744C509.189 106.019 509.388 105.953 509.388 104.363V102.706H500.444H491.5V104.363Z" fill="black"/>
<path d="M513.369 111.648V120.724L520.061 120.459L526.752 120.26L529.004 117.809C530.859 115.755 531.257 114.828 531.257 112.31C531.257 105.619 528.276 103.234 519.531 102.836L513.369 102.571V111.648ZM526.023 107.938C528.408 110.323 528.541 113.171 526.421 115.623C525.228 117.08 524.168 117.412 520.789 117.743L516.682 118.14V112.045V106.016H520.392C523.572 106.016 524.301 106.281 526.023 107.938Z" fill="black"/>
<path d="M463.941 118.211C463.279 119.932 464.206 121.388 465.795 121.123C466.92 120.991 467.318 120.461 467.318 119.27C467.318 118.078 466.92 117.548 465.795 117.416C464.934 117.284 464.14 117.615 463.941 118.211Z" fill="black"/>
</svg>
