<svg width="100" height="100" viewBox="0 0 100 100" fill="none" xmlns="http://www.w3.org/2000/svg">
<rect width="100" height="100" rx="50" fill="#E5317F"/>
<path d="M46 44.6725C45.9995 44.4009 46.0727 44.1343 46.2119 43.9011C46.3512 43.6677 46.5515 43.4758 46.791 43.3474C47.0305 43.2189 47.3008 43.1585 47.5723 43.1716C47.8435 43.1847 48.1061 43.2709 48.332 43.4216H48.333L56.3252 48.7516C56.5282 48.887 56.6976 49.0745 56.8154 49.2946C56.9319 49.5123 56.9932 49.7557 56.9932 50.0026C56.9931 50.2495 56.9319 50.493 56.8154 50.7106C56.728 50.8739 56.6113 51.0192 56.4717 51.1393L56.3252 51.2507L48.333 56.5807H48.332C48.1063 56.7312 47.8442 56.8175 47.5732 56.8307C47.302 56.8439 47.0314 56.7831 46.792 56.655C46.5528 56.5269 46.3523 56.336 46.2129 56.1032C46.0735 55.8704 46 55.6041 46 55.3327V44.6725Z" fill="white" stroke="white" stroke-width="2" stroke-linecap="round" stroke-linejoin="round"/>
<path d="M50 29C55.5695 29 60.9113 31.2121 64.8496 35.1504C68.7879 39.0887 71 44.4305 71 50C71 52.7577 70.4567 55.4883 69.4014 58.0361C68.346 60.584 66.7996 62.8996 64.8496 64.8496C62.8996 66.7996 60.584 68.346 58.0361 69.4014C55.4883 70.4567 52.7577 71 50 71C47.2423 71 44.5117 70.4567 41.9639 69.4014C39.416 68.346 37.1004 66.7996 35.1504 64.8496C33.2004 62.8996 31.654 60.584 30.5986 58.0361C29.5433 55.4883 29 52.7577 29 50C29 44.4305 31.2121 39.0887 35.1504 35.1504C39.0887 31.2121 44.4305 29 50 29Z" stroke="white" stroke-width="3" stroke-linecap="round" stroke-linejoin="round"/>
</svg>
