<svg width="11" height="10" viewBox="0 0 11 10" fill="none" xmlns="http://www.w3.org/2000/svg">
<path d="M4.5378 0.483525C4.7478 -0.161175 5.6599 -0.161175 5.8692 0.483525L6.6182 2.78793C6.66396 2.92827 6.75291 3.05055 6.87235 3.1373C6.99178 3.22405 7.13558 3.27082 7.2832 3.27093H9.7066C10.3849 3.27093 10.6663 4.13893 10.1182 4.53792L8.1582 5.96173C8.03852 6.04855 7.9494 6.17103 7.90363 6.31162C7.85786 6.45221 7.85778 6.60369 7.9034 6.74433L8.6524 9.04873C8.8624 9.69343 8.1239 10.2303 7.5744 9.83132L5.6144 8.40753C5.49484 8.32073 5.35089 8.27398 5.20315 8.27398C5.05541 8.27398 4.91145 8.32073 4.7919 8.40753L2.8319 9.83132C2.2831 10.2303 1.5453 9.69343 1.7546 9.04873L2.5036 6.74433C2.54922 6.60369 2.54914 6.45221 2.50336 6.31162C2.45759 6.17103 2.36848 6.04855 2.2488 5.96173L0.289497 4.53863C-0.258602 4.13963 0.0234976 3.27162 0.701098 3.27162H3.1238C3.27153 3.27166 3.41549 3.22496 3.53506 3.1382C3.65464 3.05145 3.7437 2.92908 3.7895 2.78862L4.5385 0.484225L4.5378 0.483525Z" fill="#FACC15"/>
</svg>
